<svg xmlns="http://www.w3.org/2000/svg" width="51" height="51" viewBox="0 0 51 51" fill="none"><g clip-path="url(#clip0_19_278)"><path d="M48.9585 21.9642H28.9437C28.5392 21.9642 28.2112 22.2921 28.2112 22.6966C28.2112 23.1011 28.5392 23.429 28.9437 23.429H48.9585C49.0931 23.429 49.2026 23.5386 49.2026 23.6731V25.3005C49.2026 25.4351 49.0931 25.5446 48.9585 25.5446H2.37646C2.24189 25.5446 2.13232 25.4351 2.13232 25.3005V23.6731C2.13232 23.5386 2.24189 23.429 2.37646 23.429H6.80352H9.0334H25.5163C25.9208 23.429 26.2487 23.1011 26.2487 22.6966C26.2487 22.2921 25.9208 21.9642 25.5163 21.9642H22.2589V18.7777C22.2589 17.3163 21.8599 15.8825 21.1046 14.6309L21.081 14.5918C20.4638 13.5688 20.1375 12.3967 20.1375 11.2021V11.0933C20.1375 11.093 20.1375 11.0927 20.1375 11.0923V7.79248C20.1375 7.11934 19.5899 6.57178 18.9168 6.57178H16.9637C16.2905 6.57178 15.743 7.11934 15.743 7.79248V11.0883V11.0893V11.1684C15.743 12.383 15.4065 13.5718 14.7701 14.6062C13.9915 15.8718 13.58 17.3261 13.58 18.8117V21.9643H11.5988C11.9593 21.3547 12.0924 20.6338 11.9652 19.9247L11.3295 16.3806C11.2501 15.9379 10.866 15.6166 10.4163 15.6166H5.4207C4.971 15.6166 4.58691 15.9379 4.50752 16.3806L3.87178 19.9247C3.74463 20.6338 3.87773 21.3547 4.23818 21.9643H2.37646C1.43418 21.9643 0.66748 22.731 0.66748 23.6732V25.3006C0.66748 26.2429 1.43418 27.0096 2.37646 27.0096H3.10889V39.4282C3.10889 39.8327 3.43682 40.1606 3.84131 40.1606C4.2458 40.1606 4.57373 39.8327 4.57373 39.4282V27.0095H46.7612V47.9243C46.7612 48.5975 46.2137 49.145 45.5405 49.145H40.9123C40.6401 47.8094 39.6383 46.7367 38.3431 46.3607V43.5786H39.1046C39.5091 43.5786 39.837 43.2507 39.837 42.8462C39.837 42.4417 39.5091 42.1138 39.1046 42.1138H38.3431V38.2073C39.0918 37.7253 39.6185 36.9278 39.7342 36.0039H41.5459C42.4882 36.0039 43.2549 35.2372 43.2549 34.2949V31.5181C43.2549 30.5758 42.4882 29.8091 41.5459 29.8091H36.5852C36.1807 29.8091 35.8527 30.137 35.8527 30.5415C35.8527 30.946 36.1807 31.2739 36.5852 31.2739H41.5459C41.6805 31.2739 41.79 31.3835 41.79 31.5181V34.2949C41.79 34.4295 41.6805 34.5391 41.5459 34.5391H30.9409C30.8063 34.5391 30.6968 34.4295 30.6968 34.2949V31.5181C30.6968 31.3835 30.8063 31.2739 30.9409 31.2739H33.1673C33.5718 31.2739 33.8997 30.946 33.8997 30.5415C33.8997 30.137 33.5718 29.8091 33.1673 29.8091H30.9409C29.9986 29.8091 29.2319 30.5758 29.2319 31.5181V34.2949C29.2319 35.2372 29.9986 36.0039 30.9409 36.0039H32.7526C32.8684 36.9278 33.395 37.7253 34.1437 38.2073V42.1138H33.3823C32.9778 42.1138 32.6499 42.4417 32.6499 42.8462C32.6499 43.2507 32.9778 43.5786 33.3823 43.5786H34.1438V46.3607C32.8486 46.7367 31.8468 47.8094 31.5746 49.145H19.7604C19.4882 47.8094 18.4863 46.7367 17.1911 46.3607V43.5786H17.9526C18.3571 43.5786 18.6851 43.2507 18.6851 42.8462C18.6851 42.4417 18.3571 42.1138 17.9526 42.1138H17.1911V38.2073C17.9398 37.7253 18.4665 36.9278 18.5822 36.0039H20.394C21.3363 36.0039 22.103 35.2372 22.103 34.2949V31.5181C22.103 30.5758 21.3363 29.8091 20.394 29.8091H9.78896C8.84668 29.8091 8.07998 30.5758 8.07998 31.5181V34.2949C8.07998 35.2372 8.84668 36.0039 9.78896 36.0039H11.6007C11.7164 36.9278 12.2431 37.7253 12.9918 38.2073V42.1138H12.2303C11.8258 42.1138 11.4979 42.4417 11.4979 42.8462C11.4979 43.2507 11.8258 43.5786 12.2303 43.5786H12.9918V46.3607C11.6966 46.7367 10.6947 47.8094 10.4226 49.145H5.79443C5.12129 49.145 4.57373 48.5975 4.57373 47.9243V42.8462C4.57373 42.4417 4.2458 42.1138 3.84131 42.1138C3.43682 42.1138 3.10889 42.4417 3.10889 42.8462V47.9243C3.10889 49.4052 4.31357 50.6099 5.79443 50.6099H45.5405C47.0214 50.6099 48.2261 49.4052 48.2261 47.9243V27.0095H48.9585C49.9008 27.0095 50.6675 26.2428 50.6675 25.3005V23.6731C50.6675 22.7309 49.9008 21.9642 48.9585 21.9642ZM18.6727 8.03662V10.3592L17.2078 10.3576V8.03662H18.6727ZM15.0447 18.8116C15.0447 17.5971 15.3812 16.4082 16.0176 15.3737C16.6814 14.2947 17.0784 13.0784 17.1811 11.8224L18.6967 11.8239C18.7934 13.0679 19.1791 14.2754 19.827 15.349L19.8506 15.3881C20.4678 16.4109 20.794 17.583 20.794 18.7776V21.9641H15.0447V18.8116ZM9.96689 17.0813L10.2004 18.3833H5.63652L5.87012 17.0813H9.96689ZM5.64258 21.4218C5.3542 21.0771 5.23428 20.6257 5.31367 20.1832L5.37373 19.8481H10.4632L10.5232 20.1832C10.6026 20.6257 10.4827 21.0771 10.1943 21.4218C9.90596 21.7665 9.48281 21.9642 9.0334 21.9642H6.80352C6.3541 21.9642 5.93096 21.7665 5.64258 21.4218ZM38.246 36.0039C38.0729 36.7071 37.4388 37.231 36.6829 37.231H35.804C35.0481 37.231 34.414 36.7071 34.2409 36.0039H38.246ZM35.6087 38.689H36.8782V42.1138H35.6087V38.689ZM36.8782 43.5786V46.2153H35.6087V43.5786H36.8782ZM35.163 47.6802H37.3239C38.2788 47.6802 39.0929 48.2926 39.3952 49.145H33.0917C33.394 48.2926 34.2081 47.6802 35.163 47.6802ZM9.54482 34.2949V31.5181C9.54482 31.3835 9.65439 31.2739 9.78896 31.2739H20.394C20.5286 31.2739 20.6382 31.3835 20.6382 31.5181V34.2949C20.6382 34.4295 20.5286 34.5391 20.394 34.5391H9.78896C9.65439 34.5391 9.54482 34.4295 9.54482 34.2949ZM17.094 36.0039C16.921 36.7071 16.2868 37.231 15.531 37.231H14.6521C13.8962 37.231 13.262 36.7071 13.089 36.0039H17.094ZM14.4567 38.689H15.7263V42.1138H14.4567V38.689ZM15.7263 43.5786V46.2153H14.4567V43.5786H15.7263ZM14.011 47.6802H16.172C17.1269 47.6802 17.9409 48.2926 18.2433 49.145H11.9397C12.2421 48.2926 13.0563 47.6802 14.011 47.6802Z" fill="url(#paint0_linear_19_278)"></path><path d="M49.9351 0.609863H1.3999C0.99541 0.609863 0.66748 0.937793 0.66748 1.34229V2.12354C0.66748 3.60439 1.87217 4.80908 3.35303 4.80908H12.0153C12.4198 4.80908 12.7478 4.48115 12.7478 4.07666C12.7478 3.67217 12.4198 3.34424 12.0153 3.34424H3.35303C2.67988 3.34424 2.13232 2.79668 2.13232 2.12354V2.07471H49.2026V2.12354C49.2026 2.79668 48.6551 3.34424 47.9819 3.34424H15.4333C15.0288 3.34424 14.7009 3.67217 14.7009 4.07666C14.7009 4.48115 15.0288 4.80908 15.4333 4.80908H24.8374V6.58438C23.8754 6.89453 23.1772 7.79795 23.1772 8.86182V11.4009C23.1772 11.8586 23.5496 12.231 24.0073 12.231H27.1323C27.59 12.231 27.9624 11.8586 27.9624 11.4009V8.86182C27.9624 7.79795 27.2643 6.89443 26.3022 6.58438V4.80908H31.5757V6.58438C30.6137 6.89453 29.9155 7.79795 29.9155 8.86182V11.4009C29.9155 11.8586 30.2879 12.231 30.7456 12.231H33.8706C34.3283 12.231 34.7007 11.8586 34.7007 11.4009V8.86182C34.7007 7.79795 34.0025 6.89443 33.0405 6.58438V4.80908H38.314V6.58438C37.352 6.89453 36.6538 7.79795 36.6538 8.86182V11.4009C36.6538 11.8586 37.0262 12.231 37.4839 12.231H40.6089C41.0666 12.231 41.439 11.8586 41.439 11.4009V8.86182C41.439 7.79795 40.7408 6.89443 39.7788 6.58438V4.80908H45.0522V6.58438C44.0902 6.89453 43.3921 7.79795 43.3921 8.86182V11.4009C43.3921 11.8586 43.7645 12.231 44.2222 12.231H47.3472C47.8049 12.231 48.1772 11.8586 48.1772 11.4009V8.86182C48.1772 7.79795 47.4791 6.89443 46.5171 6.58438V4.80908H47.9819C49.4628 4.80908 50.6675 3.60439 50.6675 2.12354V1.34229C50.6675 0.937793 50.3396 0.609863 49.9351 0.609863ZM26.4976 10.7661H24.6421V8.86182C24.6421 8.35029 25.0583 7.93408 25.5698 7.93408C26.0813 7.93408 26.4976 8.35029 26.4976 8.86182V10.7661ZM33.2358 10.7661H31.3804V8.86182C31.3804 8.35029 31.7966 7.93408 32.3081 7.93408C32.8196 7.93408 33.2358 8.35029 33.2358 8.86182V10.7661ZM39.9741 10.7661H38.1187V8.86182C38.1187 8.35029 38.5349 7.93408 39.0464 7.93408C39.5579 7.93408 39.9741 8.35029 39.9741 8.86182V10.7661ZM46.7124 10.7661H44.8569V8.86182C44.8569 8.35029 45.2731 7.93408 45.7847 7.93408C46.2962 7.93408 46.7124 8.35029 46.7124 8.86182V10.7661Z" fill="url(#paint1_linear_19_278)"></path></g><defs><linearGradient id="paint0_linear_19_278" x1="25.6675" y1="6.57178" x2="25.6675" y2="50.6099" gradientUnits="userSpaceOnUse"><stop stop-color="#00F0FF"></stop><stop offset="1" stop-color="#00AFFF"></stop></linearGradient><linearGradient id="paint1_linear_19_278" x1="25.6675" y1="0.609863" x2="25.6675" y2="12.231" gradientUnits="userSpaceOnUse"><stop stop-color="#00F0FF"></stop><stop offset="1" stop-color="#00AFFF"></stop></linearGradient><clipPath id="clip0_19_278"><rect width="50" height="50" fill="white" transform="translate(0.66748 0.609863)"></rect></clipPath></defs></svg>