<svg xmlns="http://www.w3.org/2000/svg" width="51" height="51" viewBox="0 0 51 51" fill="none"><g clip-path="url(#clip0_19_248)"><path d="M19.0389 9.67936L24.9876 15.4248C25.1769 15.6076 25.4214 15.6989 25.6661 15.6989C25.9106 15.6989 26.1551 15.6076 26.3443 15.425L32.2958 9.67956C32.3043 9.67135 32.3127 9.66296 32.3209 9.65446C34.3209 7.57829 34.3209 4.2027 32.3208 2.13005C31.4486 1.22516 30.2542 0.756902 28.9586 0.809734C27.7468 0.859734 26.5776 1.35641 25.6675 2.207C24.7561 1.35593 23.5875 0.859734 22.3763 0.809734C21.0806 0.756609 19.8863 1.22507 19.0146 2.12956C17.0142 4.2027 17.014 7.57829 19.014 9.65446C19.0222 9.66286 19.0305 9.67116 19.0389 9.67936ZM20.4206 3.48532C21.5206 2.34411 23.3099 2.67555 24.3374 3.63708L24.3917 3.68796C24.7871 4.05837 25.1285 4.37839 25.6666 4.37839C26.2035 4.37839 26.5457 4.05905 26.9418 3.68932L26.9979 3.63698C28.0251 2.67565 29.8149 2.34401 30.915 3.48571C32.1906 4.80768 32.1941 6.95807 30.9258 8.28747L25.6664 13.3648L20.4092 8.28737C19.141 6.95807 19.1445 4.80768 20.4206 3.48532Z" fill="url(#paint0_linear_19_248)"></path><path d="M50.6674 42.7956C50.5816 37.6938 46.4194 36.5708 43.0751 35.6684C42.6309 35.5485 42.2026 35.4329 41.79 35.3116V33.4679C44.4296 31.7271 46.4129 28.6555 46.4129 25.983V21.5978C46.4129 16.8281 42.5351 12.9478 37.7685 12.9478C32.8203 12.9478 28.9442 16.7473 28.9442 21.5978V25.983C28.9442 28.6589 30.9271 31.7296 33.5671 33.4688V35.3116C33.1542 35.433 32.7258 35.5486 32.2813 35.6686C31.9857 35.7482 31.6837 35.8299 31.3787 35.9157C31.3688 35.9182 31.3589 35.9213 31.349 35.924C31.3433 35.9256 31.3375 35.9271 31.3317 35.9289C29.196 36.5321 26.9222 37.3536 25.666 39.28C25.4082 38.8846 25.108 38.5352 24.7744 38.2252L22.9251 25.8084V22.2238C22.9251 17.109 18.7666 12.9478 13.6552 12.9478C8.54365 12.9478 4.38516 17.109 4.38516 22.2238V25.8084L2.53564 38.2255C1.44238 39.2413 0.702051 40.6745 0.66748 42.7961V42.812V49.4384C0.66748 49.9777 1.10479 50.4149 1.64404 50.4149H9.27031C9.80957 50.4149 10.2469 49.9777 10.2469 49.4384C10.2469 48.899 9.80957 48.4618 9.27031 48.4618H7.16035V44.0559C7.16035 43.8728 7.14502 43.2854 7.1498 43.1987C7.20674 43.1511 7.33818 43.0575 7.64092 42.8854C8.95977 42.1353 11.7782 42.285 12.9644 43.4719C13.1475 43.6552 13.396 43.7582 13.6551 43.7582C13.9142 43.7582 14.1627 43.6552 14.3458 43.4719C15.5319 42.285 18.3502 42.1353 19.669 42.8853C19.972 43.0575 20.1034 43.1511 20.1603 43.1987C20.165 43.2854 20.1497 48.4618 20.1497 48.4618H18.0398C17.5006 48.4618 17.0633 48.899 17.0633 49.4384C17.0633 49.9777 17.5006 50.4149 18.0398 50.4149H25.6661H37.6742C37.6749 50.4149 37.6756 50.415 37.6763 50.415C37.6766 50.415 37.6769 50.4149 37.6771 50.4149C37.6775 50.4149 49.691 50.4148 49.691 50.4148C50.2303 50.4148 50.6676 49.9776 50.6676 49.4383V42.8119C50.6675 42.8065 50.6675 42.8011 50.6674 42.7956ZM22.5919 36.8294C21.4481 36.3146 20.2021 35.9784 19.0528 35.6683C18.6087 35.5484 18.1805 35.4329 17.768 35.3115V33.7281C19.4567 32.5189 20.8157 30.7261 21.4133 28.916L22.5919 36.8294ZM15.0949 32.9737C14.0187 33.3735 13.2941 33.3742 12.2236 32.9766C9.76201 32.0617 7.52021 29.2143 7.52021 27.0024V25.7903C8.88965 24.956 9.90762 24.1337 10.7369 23.1944C13.0469 24.698 16.0819 25.8104 19.7898 26.5137V27.0024C19.7898 29.2112 17.5516 32.0576 15.0949 32.9737ZM6.33818 22.2238C6.33818 18.1859 9.62051 14.9009 13.6551 14.9009C17.6896 14.9009 20.9719 18.1859 20.9719 22.2238V24.7415C16.7418 24.0311 13.4354 22.805 11.1321 21.0913C10.9626 20.9651 10.7579 20.8982 10.5491 20.8982C10.5016 20.8982 10.4537 20.9018 10.4062 20.9088C10.1495 20.9468 9.91855 21.0854 9.76426 21.2938C9.06084 22.2439 8.16592 23.135 6.33818 24.2237V22.2238ZM5.89697 28.9153C6.49443 30.727 7.8542 32.5203 9.54492 33.7299V35.3116C9.13232 35.4329 8.7041 35.5483 8.26006 35.6681C7.10977 35.9783 5.86279 36.3147 4.71816 36.8298L5.89697 28.9153ZM24.6895 48.4617H22.1028V44.0558C22.1028 43.8921 22.1066 43.7491 22.11 43.6226C22.1415 42.4234 21.9421 41.9312 20.6347 41.1873C18.8598 40.1779 15.6686 40.1831 13.6551 41.5275C11.6417 40.1831 8.45049 40.178 6.67529 41.1873C5.36787 41.9311 5.16846 42.4233 5.2001 43.6225C5.20342 43.749 5.20723 43.892 5.20723 44.0557V48.4616H2.62061V42.8202C2.679 39.4389 4.98271 38.5748 8.76865 37.5537C9.45381 37.3689 10.1623 37.1778 10.828 36.9577C11.228 36.8255 11.498 36.4518 11.498 36.0305V34.7894C11.5132 34.7951 11.5281 34.8017 11.5434 34.8073C12.2922 35.0855 12.9726 35.2246 13.6536 35.2246C14.3372 35.2246 15.0216 35.0845 15.7762 34.8041C15.7891 34.7993 15.8018 34.7937 15.8147 34.7888V36.0305C15.8147 36.4517 16.0848 36.8253 16.4846 36.9576C17.1501 37.1778 17.8587 37.3689 18.5438 37.5538C22.328 38.5749 24.6309 39.4394 24.6895 42.8198V48.4617ZM42.3556 37.4966L40.9691 40.3696L39.1563 38.7342L41.0368 37.1247C41.4721 37.2563 41.9166 37.3778 42.3556 37.4966ZM37.682 37.4253L35.5202 35.5466V34.4518C36.2838 34.7242 36.9834 34.8621 37.6816 34.8621C38.3793 34.8621 39.0771 34.7243 39.8369 34.4521V35.5809L37.682 37.4253ZM37.7685 14.9009C41.458 14.9009 44.4598 17.9051 44.4598 21.5978V21.6307C40.0996 23.6146 38.3519 22.7716 36.5073 21.8796C35.0811 21.1898 33.49 20.4223 30.9279 20.9594C31.248 17.5146 34.1369 14.9009 37.7685 14.9009ZM30.8974 25.983V22.9723C33.0666 22.386 34.2249 22.9453 35.657 23.638C36.8233 24.2021 38.0739 24.8069 39.8719 24.8068C41.0977 24.8068 42.5784 24.5251 44.4597 23.7579V25.983C44.4597 27.1229 43.9104 28.4949 42.9525 29.7473C41.9596 31.0457 40.6205 32.0774 39.278 32.5784C38.0867 33.0243 37.2811 33.0249 36.0846 32.5803C33.3698 31.5729 30.8974 28.4284 30.8974 25.983ZM34.3488 37.1163L36.2044 38.7289L34.3857 40.3709L33.8017 39.1605L33.7467 39.0438C33.7425 39.035 33.7374 39.0269 33.7329 39.0182L32.9991 37.4977C33.4483 37.3762 33.904 37.2513 34.3488 37.1163ZM26.6426 48.4617V42.8253C26.685 40.2753 28.0036 39.1557 30.2708 38.3216L28.9055 44.2379C28.8125 44.6409 28.9835 45.0589 29.3324 45.2812L34.326 48.4617H26.6426ZM30.9638 44.0046L31.9365 39.7894L35.3049 46.7695L30.9638 44.0046ZM35.2702 42.2037L37.6773 40.0304L40.0847 42.2022L37.6771 47.1913L35.2702 42.2037ZM43.4184 39.7881L44.3929 44.0047L40.0488 46.7706L43.4184 39.7881ZM48.7144 48.4617H41.0292L46.0244 45.2813C46.3734 45.059 46.5445 44.6407 46.4514 44.2375L45.0841 38.3216C47.3495 39.1552 48.6688 40.2737 48.7144 42.8205V48.4617Z" fill="url(#paint1_linear_19_248)"></path><path d="M13.6553 48.4619C13.116 48.4619 12.6787 48.8991 12.6787 49.4385C12.6787 49.9778 13.116 50.415 13.6553 50.415H13.6608C14.2001 50.415 14.6347 49.9778 14.6347 49.4385C14.6347 48.8991 14.1946 48.4619 13.6553 48.4619Z" fill="url(#paint2_linear_19_248)"></path></g><defs><linearGradient id="paint0_linear_19_248" x1="25.6675" y1="0.805664" x2="25.6675" y2="15.6989" gradientUnits="userSpaceOnUse"><stop stop-color="#00F0FF"></stop><stop offset="1" stop-color="#00AFFF"></stop></linearGradient><linearGradient id="paint1_linear_19_248" x1="25.6675" y1="12.9478" x2="25.6675" y2="50.415" gradientUnits="userSpaceOnUse"><stop stop-color="#00F0FF"></stop><stop offset="1" stop-color="#00AFFF"></stop></linearGradient><linearGradient id="paint2_linear_19_248" x1="13.6567" y1="48.4619" x2="13.6567" y2="50.415" gradientUnits="userSpaceOnUse"><stop stop-color="#00F0FF"></stop><stop offset="1" stop-color="#00AFFF"></stop></linearGradient><clipPath id="clip0_19_248"><rect width="50" height="50" fill="white" transform="translate(0.66748 0.610352)"></rect></clipPath></defs></svg>