<svg xmlns="http://www.w3.org/2000/svg" width="35" height="36" viewBox="0 0 35 36" fill="none"><path d="M13.1248 18.0001L16.0415 20.9167L22.604 14.3542M26.1057 7.78957C26.406 8.51586 26.9824 9.09316 27.7082 9.39456L30.2533 10.4488C30.9796 10.7497 31.5567 11.3267 31.8575 12.0531C32.1584 12.7794 32.1584 13.5955 31.8575 14.3219L30.8041 16.8652C30.5031 17.5919 30.5027 18.4088 30.805 19.1351L31.8567 21.6777C32.0058 22.0374 32.0826 22.4231 32.0827 22.8125C32.0827 23.2019 32.0061 23.5876 31.857 23.9474C31.708 24.3072 31.4895 24.6341 31.2141 24.9094C30.9387 25.1847 30.6117 25.4031 30.2519 25.552L27.7087 26.6055C26.9824 26.9058 26.4051 27.4823 26.1038 28.2081L25.0496 30.7532C24.7487 31.4796 24.1716 32.0567 23.4453 32.3575C22.719 32.6584 21.9029 32.6584 21.1766 32.3575L18.6334 31.304C17.907 31.0039 17.0913 31.0045 16.3654 31.3057L13.8203 32.3585C13.0944 32.6586 12.279 32.6584 11.5533 32.3578C10.8276 32.0571 10.2508 31.4808 9.94977 30.7552L8.89526 28.2093C8.59496 27.483 8.01855 26.9057 7.29274 26.6043L4.74768 25.55C4.02168 25.2493 3.44479 24.6726 3.14383 23.9467C2.84287 23.2207 2.84246 22.405 3.1427 21.6788L4.19614 19.1355C4.49625 18.4091 4.49564 17.5933 4.19443 16.8674L3.14251 14.3204C2.99336 13.9606 2.91657 13.575 2.9165 13.1856C2.91644 12.7961 2.99311 12.4105 3.14214 12.0507C3.29117 11.6909 3.50963 11.364 3.78504 11.0887C4.06045 10.8133 4.38741 10.595 4.74724 10.4461L7.29048 9.39258C8.01611 9.09254 8.59304 8.51683 8.89465 7.79183L9.94885 5.24668C10.2497 4.52033 10.8268 3.94326 11.5531 3.64239C12.2794 3.34153 13.0955 3.34153 13.8218 3.64239L16.365 4.69587C17.0914 4.996 17.9072 4.99538 18.633 4.69417L21.1792 3.64403C21.9054 3.34334 22.7213 3.3434 23.4475 3.6442C24.1736 3.945 24.7506 4.52191 25.0515 5.24807L26.106 7.79398L26.1057 7.78957Z" stroke="url(#paint0_linear_1_135)" stroke-width="2" stroke-linecap="round" stroke-linejoin="round"></path><defs><linearGradient id="paint0_linear_1_135" x1="17.4998" y1="3.41675" x2="17.4998" y2="32.5834" gradientUnits="userSpaceOnUse"><stop stop-color="#00F0FF"></stop><stop offset="1" stop-color="#00AFFF"></stop></linearGradient></defs></svg>