<svg xmlns="http://www.w3.org/2000/svg" width="141" height="25" viewBox="0 0 141 25" fill="none"><path d="M11.7827 4.2309C12.0131 3.76396 12.1284 3.5305 12.2848 3.4559C12.4209 3.391 12.5791 3.391 12.7152 3.4559C12.8717 3.5305 12.9869 3.76396 13.2174 4.2309L15.4041 8.66087C15.4721 8.79872 15.5061 8.86765 15.5558 8.92116C15.5999 8.96855 15.6527 9.00694 15.7113 9.03421C15.7776 9.06501 15.8536 9.07613 16.0057 9.09836L20.897 9.81329C21.4121 9.88858 21.6696 9.92622 21.7888 10.052C21.8925 10.1615 21.9412 10.3119 21.9215 10.4614C21.8988 10.6332 21.7124 10.8148 21.3395 11.178L17.8014 14.624C17.6912 14.7314 17.636 14.7851 17.6004 14.849C17.5689 14.9056 17.5487 14.9678 17.5409 15.0321C17.5321 15.1047 17.5451 15.1806 17.5711 15.3323L18.406 20.1997C18.494 20.7131 18.538 20.9698 18.4553 21.1221C18.3833 21.2546 18.2554 21.3476 18.1071 21.3751C17.9366 21.4067 17.7061 21.2854 17.2451 21.043L12.8724 18.7434C12.7361 18.6718 12.668 18.6359 12.5962 18.6219C12.5327 18.6094 12.4673 18.6094 12.4038 18.6219C12.332 18.6359 12.2639 18.6718 12.1277 18.7434L7.75492 21.043C7.29392 21.2854 7.06341 21.4067 6.89297 21.3751C6.74468 21.3476 6.61672 21.2546 6.54474 21.1221C6.462 20.9698 6.50603 20.7131 6.59407 20.1997L7.42889 15.3323C7.45491 15.1806 7.46793 15.1047 7.45912 15.0321C7.45132 14.9678 7.43111 14.9056 7.39961 14.849C7.36402 14.7851 7.30888 14.7314 7.19859 14.624L3.66056 11.178C3.28766 10.8148 3.10121 10.6332 3.07853 10.4614C3.05879 10.3119 3.10755 10.1615 3.21125 10.052C3.33044 9.92622 3.58797 9.88858 4.10304 9.81329L8.99431 9.09836C9.14642 9.07613 9.22248 9.06501 9.28872 9.03421C9.34736 9.00694 9.40016 8.96855 9.44419 8.92116C9.49391 8.86765 9.52793 8.79872 9.59597 8.66087L11.7827 4.2309Z" fill="url(#paint0_linear_20023_245)"></path><path d="M40.7827 4.2309C41.0131 3.76396 41.1284 3.5305 41.2848 3.4559C41.4209 3.391 41.5791 3.391 41.7152 3.4559C41.8717 3.5305 41.9869 3.76396 42.2174 4.2309L44.4041 8.66087C44.4721 8.79872 44.5061 8.86765 44.5558 8.92116C44.5999 8.96855 44.6527 9.00694 44.7113 9.03421C44.7776 9.06501 44.8536 9.07613 45.0057 9.09836L49.897 9.81329C50.4121 9.88858 50.6696 9.92622 50.7888 10.052C50.8925 10.1615 50.9412 10.3119 50.9215 10.4614C50.8988 10.6332 50.7124 10.8148 50.3395 11.178L46.8014 14.624C46.6912 14.7314 46.636 14.7851 46.6004 14.849C46.5689 14.9056 46.5487 14.9678 46.5409 15.0321C46.5321 15.1047 46.5451 15.1806 46.5711 15.3323L47.406 20.1997C47.494 20.7131 47.538 20.9698 47.4553 21.1221C47.3833 21.2546 47.2554 21.3476 47.1071 21.3751C46.9366 21.4067 46.7061 21.2854 46.2451 21.043L41.8724 18.7434C41.7361 18.6718 41.668 18.6359 41.5962 18.6219C41.5327 18.6094 41.4673 18.6094 41.4038 18.6219C41.332 18.6359 41.2639 18.6718 41.1277 18.7434L36.7549 21.043C36.2939 21.2854 36.0634 21.4067 35.893 21.3751C35.7447 21.3476 35.6167 21.2546 35.5447 21.1221C35.462 20.9698 35.506 20.7131 35.5941 20.1997L36.4289 15.3323C36.4549 15.1806 36.4679 15.1047 36.4591 15.0321C36.4513 14.9678 36.4311 14.9056 36.3996 14.849C36.364 14.7851 36.3089 14.7314 36.1986 14.624L32.6606 11.178C32.2877 10.8148 32.1012 10.6332 32.0785 10.4614C32.0588 10.3119 32.1076 10.1615 32.2113 10.052C32.3304 9.92622 32.588 9.88858 33.103 9.81329L37.9943 9.09836C38.1464 9.07613 38.2225 9.06501 38.2887 9.03421C38.3474 9.00694 38.4002 8.96855 38.4442 8.92116C38.4939 8.86765 38.5279 8.79872 38.596 8.66087L40.7827 4.2309Z" fill="url(#paint1_linear_20023_245)"></path><path d="M69.7827 4.2309C70.0131 3.76396 70.1284 3.5305 70.2848 3.4559C70.4209 3.391 70.5791 3.391 70.7152 3.4559C70.8717 3.5305 70.9869 3.76396 71.2174 4.2309L73.4041 8.66087C73.4721 8.79872 73.5061 8.86765 73.5558 8.92116C73.5999 8.96855 73.6527 9.00694 73.7113 9.03421C73.7776 9.06501 73.8536 9.07613 74.0057 9.09836L78.897 9.81329C79.4121 9.88858 79.6696 9.92622 79.7888 10.052C79.8925 10.1615 79.9412 10.3119 79.9215 10.4614C79.8988 10.6332 79.7124 10.8148 79.3395 11.178L75.8014 14.624C75.6912 14.7314 75.636 14.7851 75.6004 14.849C75.5689 14.9056 75.5487 14.9678 75.5409 15.0321C75.5321 15.1047 75.5451 15.1806 75.5711 15.3323L76.406 20.1997C76.494 20.7131 76.538 20.9698 76.4553 21.1221C76.3833 21.2546 76.2554 21.3476 76.1071 21.3751C75.9366 21.4067 75.7061 21.2854 75.2451 21.043L70.8724 18.7434C70.7361 18.6718 70.668 18.6359 70.5962 18.6219C70.5327 18.6094 70.4673 18.6094 70.4038 18.6219C70.332 18.6359 70.2639 18.6718 70.1277 18.7434L65.7549 21.043C65.2939 21.2854 65.0634 21.4067 64.893 21.3751C64.7447 21.3476 64.6167 21.2546 64.5447 21.1221C64.462 20.9698 64.506 20.7131 64.5941 20.1997L65.4289 15.3323C65.4549 15.1806 65.4679 15.1047 65.4591 15.0321C65.4513 14.9678 65.4311 14.9056 65.3996 14.849C65.364 14.7851 65.3089 14.7314 65.1986 14.624L61.6606 11.178C61.2877 10.8148 61.1012 10.6332 61.0785 10.4614C61.0588 10.3119 61.1076 10.1615 61.2113 10.052C61.3304 9.92622 61.588 9.88858 62.103 9.81329L66.9943 9.09836C67.1464 9.07613 67.2225 9.06501 67.2887 9.03421C67.3474 9.00694 67.4002 8.96855 67.4442 8.92116C67.4939 8.86765 67.5279 8.79872 67.596 8.66087L69.7827 4.2309Z" fill="url(#paint2_linear_20023_245)"></path><path d="M98.7827 4.2309C99.0131 3.76396 99.1284 3.5305 99.2848 3.4559C99.4209 3.391 99.5791 3.391 99.7152 3.4559C99.8717 3.5305 99.9869 3.76396 100.217 4.2309L102.404 8.66087C102.472 8.79872 102.506 8.86765 102.556 8.92116C102.6 8.96855 102.653 9.00694 102.711 9.03421C102.778 9.06501 102.854 9.07613 103.006 9.09836L107.897 9.81329C108.412 9.88858 108.67 9.92622 108.789 10.052C108.892 10.1615 108.941 10.3119 108.922 10.4614C108.899 10.6332 108.712 10.8148 108.339 11.178L104.801 14.624C104.691 14.7314 104.636 14.7851 104.6 14.849C104.569 14.9056 104.549 14.9678 104.541 15.0321C104.532 15.1047 104.545 15.1806 104.571 15.3323L105.406 20.1997C105.494 20.7131 105.538 20.9698 105.455 21.1221C105.383 21.2546 105.255 21.3476 105.107 21.3751C104.937 21.4067 104.706 21.2854 104.245 21.043L99.8724 18.7434C99.7361 18.6718 99.668 18.6359 99.5962 18.6219C99.5327 18.6094 99.4673 18.6094 99.4038 18.6219C99.332 18.6359 99.2639 18.6718 99.1277 18.7434L94.7549 21.043C94.2939 21.2854 94.0634 21.4067 93.893 21.3751C93.7447 21.3476 93.6167 21.2546 93.5447 21.1221C93.462 20.9698 93.506 20.7131 93.5941 20.1997L94.4289 15.3323C94.4549 15.1806 94.4679 15.1047 94.4591 15.0321C94.4513 14.9678 94.4311 14.9056 94.3996 14.849C94.364 14.7851 94.3089 14.7314 94.1986 14.624L90.6606 11.178C90.2877 10.8148 90.1012 10.6332 90.0785 10.4614C90.0588 10.3119 90.1076 10.1615 90.2113 10.052C90.3304 9.92622 90.588 9.88858 91.103 9.81329L95.9943 9.09836C96.1464 9.07613 96.2225 9.06501 96.2887 9.03421C96.3474 9.00694 96.4002 8.96855 96.4442 8.92116C96.4939 8.86765 96.5279 8.79872 96.596 8.66087L98.7827 4.2309Z" fill="url(#paint3_linear_20023_245)"></path><path d="M127.783 4.2309C128.013 3.76396 128.128 3.5305 128.285 3.4559C128.421 3.391 128.579 3.391 128.715 3.4559C128.872 3.5305 128.987 3.76396 129.217 4.2309L131.404 8.66087C131.472 8.79872 131.506 8.86765 131.556 8.92116C131.6 8.96855 131.653 9.00694 131.711 9.03421C131.778 9.06501 131.854 9.07613 132.006 9.09836L136.897 9.81329C137.412 9.88858 137.67 9.92622 137.789 10.052C137.892 10.1615 137.941 10.3119 137.922 10.4614C137.899 10.6332 137.712 10.8148 137.339 11.178L133.801 14.624C133.691 14.7314 133.636 14.7851 133.6 14.849C133.569 14.9056 133.549 14.9678 133.541 15.0321C133.532 15.1047 133.545 15.1806 133.571 15.3323L134.406 20.1997C134.494 20.7131 134.538 20.9698 134.455 21.1221C134.383 21.2546 134.255 21.3476 134.107 21.3751C133.937 21.4067 133.706 21.2854 133.245 21.043L128.872 18.7434C128.736 18.6718 128.668 18.6359 128.596 18.6219C128.533 18.6094 128.467 18.6094 128.404 18.6219C128.332 18.6359 128.264 18.6718 128.128 18.7434L123.755 21.043C123.294 21.2854 123.063 21.4067 122.893 21.3751C122.745 21.3476 122.617 21.2546 122.545 21.1221C122.462 20.9698 122.506 20.7131 122.594 20.1997L123.429 15.3323C123.455 15.1806 123.468 15.1047 123.459 15.0321C123.451 14.9678 123.431 14.9056 123.4 14.849C123.364 14.7851 123.309 14.7314 123.199 14.624L119.661 11.178C119.288 10.8148 119.101 10.6332 119.079 10.4614C119.059 10.3119 119.108 10.1615 119.211 10.052C119.33 9.92622 119.588 9.88858 120.103 9.81329L124.994 9.09836C125.146 9.07613 125.222 9.06501 125.289 9.03421C125.347 9.00694 125.4 8.96855 125.444 8.92116C125.494 8.86765 125.528 8.79872 125.596 8.66087L127.783 4.2309Z" fill="url(#paint4_linear_20023_245)"></path><defs><linearGradient id="paint0_linear_20023_245" x1="12.5" y1="3.40723" x2="12.5" y2="21.38" gradientUnits="userSpaceOnUse"><stop stop-color="#FECB00"></stop><stop offset="1" stop-color="#EF7F01"></stop></linearGradient><linearGradient id="paint1_linear_20023_245" x1="41.5" y1="3.40723" x2="41.5" y2="21.38" gradientUnits="userSpaceOnUse"><stop stop-color="#FECB00"></stop><stop offset="1" stop-color="#EF7F01"></stop></linearGradient><linearGradient id="paint2_linear_20023_245" x1="70.5" y1="3.40723" x2="70.5" y2="21.38" gradientUnits="userSpaceOnUse"><stop stop-color="#FECB00"></stop><stop offset="1" stop-color="#EF7F01"></stop></linearGradient><linearGradient id="paint3_linear_20023_245" x1="99.5" y1="3.40723" x2="99.5" y2="21.38" gradientUnits="userSpaceOnUse"><stop stop-color="#FECB00"></stop><stop offset="1" stop-color="#EF7F01"></stop></linearGradient><linearGradient id="paint4_linear_20023_245" x1="128.5" y1="3.40723" x2="128.5" y2="21.38" gradientUnits="userSpaceOnUse"><stop stop-color="#FECB00"></stop><stop offset="1" stop-color="#EF7F01"></stop></linearGradient></defs></svg>