<svg xmlns="http://www.w3.org/2000/svg" width="60" height="61" viewBox="0 0 60 61" fill="none"><g clip-path="url(#clip0_1_120)"><path d="M59.9529 55.2378L59.3829 53.652C59.2716 53.3424 59.1004 53.0577 58.8791 52.8143C58.6578 52.5708 58.3907 52.3733 58.093 52.2331C57.7954 52.0929 57.473 52.0127 57.1444 51.9971C56.8157 51.9815 56.4872 52.0308 56.1776 52.1422L54.3312 52.8059L50.2217 41.3839C51.8146 40.2271 52.9902 38.5856 53.5724 36.705C54.1546 34.8244 54.1121 32.8059 53.4513 30.9514L47.3196 13.9025C47.2459 13.6979 47.0941 13.5309 46.8974 13.4382C46.7007 13.3455 46.4753 13.3346 46.2706 13.408L30.7348 18.995C30.6331 19.0314 30.5397 19.0875 30.4598 19.1602C30.3799 19.2328 30.3151 19.3205 30.2692 19.4183C30.2233 19.516 30.1971 19.6219 30.1922 19.7297C30.1874 19.8376 30.2038 19.9454 30.2407 20.0469L36.372 37.0962C37.0447 38.9458 38.2979 40.528 39.9443 41.6064C41.5906 42.6848 43.5417 43.2016 45.506 43.0794L49.6142 54.5019L47.7678 55.1661C47.143 55.3916 46.6332 55.8557 46.3502 56.4566C46.0672 57.0575 46.0342 57.7462 46.2584 58.3714L46.8284 59.9572C46.8647 60.0587 46.9206 60.152 46.993 60.2319C47.0655 60.3117 47.153 60.3764 47.2505 60.4224C47.348 60.4683 47.4536 60.4946 47.5613 60.4996C47.6689 60.5046 47.7765 60.4884 47.8779 60.4517L51.9495 58.9873C51.9959 58.9792 52.0416 58.9669 52.0859 58.9508L55.2574 57.8103C55.3 57.7949 55.3411 57.7758 55.3803 57.7531L59.4584 56.2873C59.5598 56.2509 59.653 56.1949 59.7327 56.1224C59.8124 56.0499 59.877 55.9624 59.9229 55.865C59.9688 55.7675 59.995 55.6619 60.0001 55.5543C60.0052 55.4467 59.9894 55.3392 59.9529 55.2378ZM54.6996 56.255C54.657 56.2706 54.6158 56.2897 54.5763 56.3122L51.6645 57.3598C51.6182 57.368 51.5727 57.38 51.5285 57.3959L48.0963 58.6301L47.8034 57.8164C47.7262 57.6006 47.7378 57.3629 47.8355 57.1556C47.9332 56.9482 48.1091 56.7881 48.3246 56.7102L50.9431 55.7684C51.1477 55.6948 51.3148 55.5428 51.4074 55.346C51.5001 55.1492 51.5108 54.9236 51.4371 54.7189L46.8345 41.922C46.7774 41.7633 46.6727 41.626 46.5347 41.5289C46.3967 41.4319 46.2321 41.3798 46.0634 41.3797C46.0248 41.3796 45.9863 41.3822 45.9481 41.3876C44.2569 41.6214 42.5367 41.2676 41.075 40.3854C39.6133 39.5032 38.4987 38.146 37.9174 36.5408L32.0623 20.2616L46.0535 15.2295L51.9078 31.5069C52.4811 33.1147 52.4857 34.8704 51.9208 36.4812C51.3559 38.092 50.2557 39.4603 48.8037 40.3578C48.6428 40.4563 48.5207 40.6074 48.4582 40.7854C48.3957 40.9635 48.3965 41.1576 48.4606 41.3351L53.0632 54.132C53.0997 54.2334 53.1557 54.3266 53.2282 54.4064C53.3006 54.4861 53.3881 54.5508 53.4856 54.5967C53.583 54.6426 53.6886 54.6689 53.7962 54.674C53.9038 54.6791 54.0114 54.663 54.1128 54.6266L56.7303 53.6848C56.9462 53.6073 57.1841 53.6186 57.3917 53.7163C57.5993 53.8141 57.7596 53.9902 57.8374 54.2061L58.1299 55.0194L54.6996 56.255Z" fill="url(#paint0_linear_1_120)"></path><path d="M29.2649 6.1358L13.7291 0.546896C13.6278 0.510452 13.5202 0.494335 13.4127 0.499466C13.3051 0.504597 13.1996 0.530877 13.1021 0.576802C13.0047 0.622727 12.9173 0.687399 12.8449 0.767121C12.7725 0.846844 12.7164 0.940054 12.6801 1.04143L6.54835 18.0917C5.88752 19.9462 5.84502 21.9648 6.42722 23.8454C7.00943 25.726 8.18501 27.3675 9.77803 28.5242L5.67178 39.9463L3.82397 39.2825C3.19866 39.0586 2.51008 39.0918 1.90921 39.3749C1.30835 39.6579 0.844243 40.1677 0.618659 40.7924L0.0467841 42.3781C-0.0267049 42.5829 -0.0158976 42.8085 0.0768315 43.0053C0.16956 43.2021 0.336625 43.354 0.541315 43.4277L4.61569 44.8906C4.65644 44.9135 4.69891 44.9331 4.74272 44.9492L7.91428 46.0897C7.9577 46.1053 8.00241 46.1171 8.04788 46.1249L12.1218 47.5902C12.3264 47.6639 12.5518 47.6534 12.7487 47.5611C12.9456 47.4687 13.0977 47.302 13.1718 47.0975L13.7418 45.5117C13.8532 45.2021 13.9026 44.8736 13.8871 44.5449C13.8715 44.2163 13.7914 43.8939 13.6512 43.5962C13.5111 43.2985 13.3136 43.0313 13.0702 42.8099C12.8267 42.5885 12.5421 42.4173 12.2324 42.306L10.3855 41.6422L14.4937 30.2188C16.4585 30.3415 18.4102 29.8247 20.0567 28.7457C21.7033 27.6666 22.9561 26.0834 23.6277 24.2328L29.759 7.18393C29.8323 6.97941 29.8215 6.75415 29.7288 6.55763C29.6362 6.3611 29.4693 6.20939 29.2649 6.1358ZM22.0841 23.6792C21.5032 25.2848 20.3887 26.6422 18.9269 27.5244C17.4651 28.4067 15.7448 28.7603 14.0535 28.5261C13.8668 28.5002 13.6769 28.5391 13.5156 28.6365C13.3542 28.7339 13.2312 28.8837 13.1671 29.061L8.56397 41.8578C8.49047 42.0627 8.50126 42.2883 8.59398 42.4852C8.68671 42.682 8.85378 42.8341 9.0585 42.9078L11.6769 43.8491C11.8927 43.9269 12.0687 44.0871 12.1664 44.2947C12.264 44.5022 12.2753 44.74 12.1977 44.9558L11.9062 45.7705L8.47444 44.5363C8.43102 44.5206 8.38632 44.5087 8.34085 44.5006L5.43038 43.4544C5.38966 43.4312 5.347 43.4116 5.30288 43.3958L1.86975 42.1611L2.16225 41.3478C2.24017 41.132 2.40047 40.9559 2.60802 40.8581C2.81556 40.7603 3.05342 40.7488 3.26944 40.8261L5.88694 41.7678C5.98835 41.8045 6.09599 41.8208 6.20371 41.8158C6.31142 41.8108 6.4171 41.7846 6.51468 41.7387C6.61225 41.6928 6.69982 41.6282 6.77236 41.5484C6.8449 41.4686 6.90099 41.3753 6.93741 41.2738L11.5401 28.4769C11.6041 28.2994 11.6049 28.1052 11.5424 27.9272C11.4799 27.7491 11.3579 27.5981 11.1969 27.4996C9.74498 26.6021 8.64474 25.2337 8.07983 23.623C7.51493 22.0122 7.51953 20.2564 8.09288 18.6486L13.9462 2.36987L27.9374 7.4019L22.0841 23.6792Z" fill="url(#paint1_linear_1_120)"></path><path d="M38.0528 8.51149C38.1605 8.51161 38.2672 8.49043 38.3667 8.44916C38.4662 8.40789 38.5566 8.34735 38.6326 8.27102L41.4334 5.46883C41.5118 5.39314 41.5742 5.30261 41.6172 5.20252C41.6602 5.10243 41.6828 4.99479 41.6837 4.88587C41.6846 4.77695 41.6638 4.66893 41.6226 4.56813C41.5813 4.46732 41.5204 4.37575 41.4434 4.29874C41.3663 4.22173 41.2747 4.16084 41.1739 4.11962C41.0731 4.07839 40.965 4.05766 40.8561 4.05863C40.7472 4.05959 40.6396 4.08225 40.5395 4.12526C40.4394 4.16827 40.3489 4.23078 40.2733 4.30914L37.4725 7.10946C37.3578 7.22421 37.2797 7.37038 37.2481 7.52949C37.2165 7.68861 37.2328 7.85352 37.2949 8.00338C37.357 8.15324 37.4622 8.28132 37.5971 8.37143C37.732 8.46154 37.8906 8.50962 38.0528 8.50961V8.51149Z" fill="url(#paint2_linear_1_120)"></path><path d="M38.2745 11.2643C38.2182 11.4745 38.2477 11.6985 38.3566 11.887C38.4654 12.0754 38.6446 12.213 38.8548 12.2693L42.6807 13.2968C42.7502 13.3153 42.8217 13.3248 42.8936 13.3249C43.0927 13.3251 43.2852 13.2528 43.4349 13.1215C43.5847 12.9902 43.6816 12.8089 43.7076 12.6115C43.7335 12.414 43.6867 12.2138 43.5759 12.0483C43.4651 11.8828 43.2979 11.7632 43.1054 11.712L39.2814 10.6845C39.1772 10.656 39.0684 10.6484 38.9613 10.6622C38.8541 10.676 38.7508 10.7108 38.6572 10.7647C38.5636 10.8186 38.4816 10.8905 38.4159 10.9763C38.3502 11.062 38.3022 11.1599 38.2745 11.2643Z" fill="url(#paint3_linear_1_120)"></path><path d="M33.474 6.88862C33.4993 6.99523 33.5458 7.09569 33.6106 7.18406C33.6754 7.27243 33.7572 7.34691 33.8513 7.40313C33.9453 7.45934 34.0497 7.49614 34.1582 7.51135C34.2667 7.52656 34.3772 7.51987 34.4831 7.49169C34.589 7.4635 34.6882 7.41438 34.7748 7.34723C34.8613 7.28008 34.9336 7.19627 34.9873 7.10073C35.0409 7.00519 35.0749 6.89987 35.0872 6.79098C35.0995 6.68209 35.0899 6.57185 35.0588 6.46675L34.0337 2.638C34.0075 2.5321 33.9605 2.43247 33.8954 2.34496C33.8302 2.25745 33.7483 2.18381 33.6544 2.12835C33.5604 2.07288 33.4564 2.03671 33.3483 2.02195C33.2402 2.00719 33.1303 2.01413 33.0249 2.04238C32.9196 2.07062 32.8209 2.11959 32.7347 2.18644C32.6485 2.25328 32.5764 2.33664 32.5228 2.43165C32.4692 2.52666 32.4351 2.63141 32.4225 2.73976C32.4099 2.84811 32.419 2.9579 32.4493 3.06269L33.474 6.88862Z" fill="url(#paint4_linear_1_120)"></path><path d="M50.0704 36.4532C50.3918 35.7765 50.5758 35.0428 50.6117 34.2945C50.6477 33.5462 50.5349 32.7983 50.28 32.0939L48.9248 28.3256C48.8771 28.1929 48.7959 28.0747 48.6891 27.9826C48.5824 27.8905 48.4537 27.8274 48.3154 27.7996L37.1071 25.5028C36.9644 25.4733 36.8163 25.4824 36.6783 25.5292C36.5402 25.576 36.4171 25.6587 36.3216 25.7688C36.2261 25.879 36.1617 26.0126 36.135 26.1559C36.1083 26.2992 36.1202 26.447 36.1696 26.5842L39.5404 35.9592C39.9217 37.0219 40.6099 37.9475 41.5177 38.6187C42.4256 39.2898 43.5123 39.6764 44.6401 39.7293C45.7679 39.7822 46.886 39.4991 47.8528 38.9159C48.8195 38.3327 49.5913 37.4756 50.0704 36.4532ZM46.2871 37.8478C45.2727 38.211 44.1557 38.1572 43.1809 37.6981C42.2062 37.2389 41.4532 36.412 41.0873 35.3985L38.211 27.3998L47.5392 29.3128L48.7387 32.6479C49.1018 33.6623 49.0479 34.7792 48.5888 35.7538C48.1297 36.7285 47.3028 37.4813 46.2895 37.8473L46.2871 37.8478Z" fill="url(#paint5_linear_1_120)"></path><path d="M11.5836 14.0516L9.71989 19.2327C9.20788 20.6564 9.28241 22.2252 9.92708 23.5939C10.5717 24.9627 11.7338 26.0193 13.1575 26.5313C14.5812 27.0434 16.15 26.9688 17.5188 26.3242C18.8875 25.6795 19.9441 24.5175 20.4561 23.0938L24.0411 13.1249C24.0889 12.9922 24.1017 12.8494 24.0782 12.7104C24.0548 12.5714 23.9958 12.4407 23.9072 12.3311C23.8185 12.2214 23.7031 12.1365 23.572 12.0845C23.4409 12.0325 23.2987 12.0151 23.159 12.0341L12.245 13.5163C12.0964 13.5364 11.9561 13.597 11.8395 13.6914C11.7228 13.7858 11.6344 13.9104 11.5836 14.0516ZM22.0401 13.8416L18.9125 22.5388C18.5396 23.5421 17.7858 24.3579 16.815 24.8088C15.8442 25.2597 14.7346 25.3095 13.7273 24.9473C12.72 24.5851 11.8963 23.8401 11.435 22.8741C10.9737 21.9082 10.9121 20.7993 11.2635 19.7881L12.9585 15.0749L22.0401 13.8416Z" fill="url(#paint6_linear_1_120)"></path></g><defs><linearGradient id="paint0_linear_1_120" x1="45.0962" y1="13.3599" x2="45.0962" y2="60.5005" gradientUnits="userSpaceOnUse"><stop stop-color="#00F0FF"></stop><stop offset="1" stop-color="#00AFFF"></stop></linearGradient><linearGradient id="paint1_linear_1_120" x1="14.9028" y1="0.498535" x2="14.9028" y2="47.6388" gradientUnits="userSpaceOnUse"><stop stop-color="#00F0FF"></stop><stop offset="1" stop-color="#00AFFF"></stop></linearGradient><linearGradient id="paint2_linear_1_120" x1="39.4581" y1="4.05859" x2="39.4581" y2="8.51149" gradientUnits="userSpaceOnUse"><stop stop-color="#00F0FF"></stop><stop offset="1" stop-color="#00AFFF"></stop></linearGradient><linearGradient id="paint3_linear_1_120" x1="40.9806" y1="10.6555" x2="40.9806" y2="13.3249" gradientUnits="userSpaceOnUse"><stop stop-color="#00F0FF"></stop><stop offset="1" stop-color="#00AFFF"></stop></linearGradient><linearGradient id="paint4_linear_1_120" x1="33.7547" y1="2.0144" x2="33.7547" y2="7.51929" gradientUnits="userSpaceOnUse"><stop stop-color="#00F0FF"></stop><stop offset="1" stop-color="#00AFFF"></stop></linearGradient><linearGradient id="paint5_linear_1_120" x1="43.3697" y1="25.4858" x2="43.3697" y2="39.7356" gradientUnits="userSpaceOnUse"><stop stop-color="#00F0FF"></stop><stop offset="1" stop-color="#00AFFF"></stop></linearGradient><linearGradient id="paint6_linear_1_120" x1="16.7365" y1="12.0266" x2="16.7365" y2="26.8679" gradientUnits="userSpaceOnUse"><stop stop-color="#00F0FF"></stop><stop offset="1" stop-color="#00AFFF"></stop></linearGradient><clipPath id="clip0_1_120"><rect width="60" height="60" fill="white" transform="translate(0 0.5)"></rect></clipPath></defs></svg>