<svg xmlns="http://www.w3.org/2000/svg" width="51" height="51" viewBox="0 0 51 51" fill="none"><path d="M24.8965 25.3331C24.3097 25.3374 23.7288 25.2153 23.1934 24.9753L7.09961 17.5316C6.66192 17.3673 6.28279 17.0769 6.01021 16.6971C5.73763 16.3173 5.58386 15.8652 5.56836 15.398C5.60424 14.9213 5.78067 14.4659 6.07534 14.0895C6.37001 13.713 6.76969 13.4324 7.22383 13.2831L24.1941 6.20266C25.2253 5.78802 26.3783 5.79616 27.4035 6.22531L43.4926 13.2425C43.9399 13.3983 44.3309 13.6833 44.6161 14.0615C44.9013 14.4396 45.068 14.8938 45.0949 15.3667C45.0708 15.8382 44.9073 16.2919 44.6251 16.6703C44.3429 17.0487 43.9547 17.3349 43.5098 17.4925L26.5441 24.9995C26.0239 25.2233 25.4629 25.3369 24.8965 25.3331ZM25.773 7.45891C25.4385 7.45563 25.1065 7.51773 24.7957 7.64172L7.82617 14.7245C7.40273 14.9019 7.13633 15.1706 7.13164 15.4277C7.12695 15.6698 7.36602 15.9331 7.75664 16.1144L23.8504 23.5573C24.1758 23.6974 24.526 23.7709 24.8802 23.7733C25.2345 23.7757 25.5856 23.707 25.9129 23.5714L42.8785 16.0644C43.2832 15.8855 43.534 15.6198 43.5332 15.3714C43.5324 15.123 43.2777 14.8527 42.8691 14.6753L26.7793 7.65812C26.4609 7.52403 26.1185 7.45625 25.773 7.45891Z" fill="url(#paint0_linear_19_268)"></path><path d="M24.9354 35.4877C24.2995 35.4881 23.6683 35.3795 23.069 35.1666L14.6315 32.1674C13.5459 31.7802 12.6064 31.067 11.9416 30.1254C11.2768 29.1838 10.9191 28.0599 10.9175 26.9072V18.7979H12.48V26.9072C12.4813 27.7372 12.739 28.5465 13.2179 29.2245C13.6967 29.9024 14.3732 30.4159 15.155 30.6947L23.5925 33.6947C24.4383 33.9926 25.359 34.0016 26.2104 33.7205L35.4292 30.6502C36.2315 30.3834 36.9294 29.8707 37.4237 29.1847C37.9181 28.4988 38.1838 27.6746 38.1831 26.8291V18.6494H39.7456V26.8291C39.7464 28.0028 39.3775 29.1469 38.6911 30.099C38.0048 31.0511 37.0359 31.7628 35.9222 32.133L26.7034 35.2033C26.133 35.3916 25.5361 35.4876 24.9354 35.4877Z" fill="url(#paint1_linear_19_268)"></path><path d="M28.0112 15.4541H23.3237C23.1165 15.4541 22.9178 15.3718 22.7713 15.2253C22.6248 15.0788 22.5425 14.8801 22.5425 14.6729C22.5425 13.8441 22.8717 13.0492 23.4578 12.4631C24.0438 11.8771 24.8387 11.5479 25.6675 11.5479C26.4963 11.5479 27.2911 11.8771 27.8772 12.4631C28.4632 13.0492 28.7925 13.8441 28.7925 14.6729C28.7925 14.8801 28.7102 15.0788 28.5637 15.2253C28.4171 15.3718 28.2184 15.4541 28.0112 15.4541ZM24.3151 13.8916H27.0198C26.8826 13.6545 26.6854 13.4576 26.448 13.3207C26.2107 13.1838 25.9415 13.1118 25.6675 13.1118C25.3935 13.1118 25.1243 13.1838 24.8869 13.3207C24.6496 13.4576 24.4524 13.6545 24.3151 13.8916Z" fill="url(#paint2_linear_19_268)"></path><path d="M43.6362 35.7668H42.0737V16.1574L27.9331 14.6684L28.0956 13.1152L42.9394 14.6777C43.1308 14.6985 43.3078 14.7893 43.4364 14.9326C43.5651 15.0759 43.6362 15.2617 43.6362 15.4543V35.7668Z" fill="url(#paint3_linear_19_268)"></path><path d="M44.4175 39.6729H41.2925C41.0853 39.6729 40.8866 39.5905 40.7401 39.444C40.5935 39.2975 40.5112 39.0988 40.5112 38.8916V35.7666C40.5112 35.5594 40.5935 35.3607 40.7401 35.2142C40.8866 35.0677 41.0853 34.9854 41.2925 34.9854H44.4175C44.6247 34.9854 44.8234 35.0677 44.9699 35.2142C45.1164 35.3607 45.1987 35.5594 45.1987 35.7666V38.8916C45.1987 39.0988 45.1164 39.2975 44.9699 39.444C44.8234 39.5905 44.6247 39.6729 44.4175 39.6729ZM42.0737 38.1104H43.6362V36.5479H42.0737V38.1104Z" fill="url(#paint4_linear_19_268)"></path><path d="M46.761 49.0479H38.9485C38.8298 49.0479 38.7127 49.0208 38.6061 48.9688C38.4994 48.9168 38.4061 48.8411 38.333 48.7476C38.26 48.654 38.2092 48.5451 38.1845 48.429C38.1599 48.313 38.162 48.1928 38.1907 48.0776L40.5345 38.7026L42.0501 39.0808L39.9493 47.4854H45.7602L43.6595 39.0808L45.1751 38.7026L47.5188 48.0776C47.5475 48.1928 47.5497 48.313 47.525 48.429C47.5003 48.5451 47.4496 48.654 47.3765 48.7476C47.3035 48.8411 47.2101 48.9168 47.1034 48.9688C46.9968 49.0208 46.8797 49.0479 46.761 49.0479Z" fill="url(#paint5_linear_19_268)"></path><defs><linearGradient id="paint0_linear_19_268" x1="25.3316" y1="5.89746" x2="25.3316" y2="25.3332" gradientUnits="userSpaceOnUse"><stop stop-color="#00F0FF"></stop><stop offset="1" stop-color="#00AFFF"></stop></linearGradient><linearGradient id="paint1_linear_19_268" x1="25.3315" y1="18.6494" x2="25.3315" y2="35.4877" gradientUnits="userSpaceOnUse"><stop stop-color="#00F0FF"></stop><stop offset="1" stop-color="#00AFFF"></stop></linearGradient><linearGradient id="paint2_linear_19_268" x1="25.6675" y1="11.5479" x2="25.6675" y2="15.4541" gradientUnits="userSpaceOnUse"><stop stop-color="#00F0FF"></stop><stop offset="1" stop-color="#00AFFF"></stop></linearGradient><linearGradient id="paint3_linear_19_268" x1="35.7847" y1="13.1152" x2="35.7847" y2="35.7668" gradientUnits="userSpaceOnUse"><stop stop-color="#00F0FF"></stop><stop offset="1" stop-color="#00AFFF"></stop></linearGradient><linearGradient id="paint4_linear_19_268" x1="42.855" y1="34.9854" x2="42.855" y2="39.6729" gradientUnits="userSpaceOnUse"><stop stop-color="#00F0FF"></stop><stop offset="1" stop-color="#00AFFF"></stop></linearGradient><linearGradient id="paint5_linear_19_268" x1="42.8548" y1="38.7026" x2="42.8548" y2="49.0479" gradientUnits="userSpaceOnUse"><stop stop-color="#00F0FF"></stop><stop offset="1" stop-color="#00AFFF"></stop></linearGradient></defs></svg>