<svg xmlns="http://www.w3.org/2000/svg" width="60" height="61" viewBox="0 0 60 61" fill="none"><g clip-path="url(#clip0_1_90)"><path d="M57.2971 38.9818C56.8372 38.3726 56.6711 37.5856 56.8414 36.824C57.0394 35.9444 57.1233 35.0383 57.0907 34.1309C56.9294 29.5679 53.8503 25.6654 49.5132 24.4047V11.1873L51.0492 8.42395C51.1219 8.29329 51.1599 8.14635 51.1599 7.99694V2.67653C51.1599 1.48128 50.1876 0.508789 48.9922 0.508789H44.1476C42.9523 0.508789 41.9799 1.48116 41.9799 2.67653V7.99682C41.9799 8.14623 42.018 8.29318 42.0907 8.42383L43.6271 11.1879V24.4036C41.9311 24.8983 40.3759 25.8217 39.1227 27.0746V24.2047H39.997C40.4823 24.2047 40.8758 23.8112 40.8758 23.3258C40.8758 22.8405 40.4823 22.447 39.997 22.447H17.7477C17.2623 22.447 16.8688 22.8405 16.8688 23.3258C16.8688 23.8112 17.2623 24.2047 17.7477 24.2047H18.5491V30.8576C14.7539 34.0405 12.5857 38.6752 12.5857 43.6419C12.5857 47.6821 14.0295 51.3912 16.4277 54.2813L13.6735 59.0057C13.4291 59.4251 13.5708 59.9631 13.9901 60.2076C14.1293 60.2887 14.2815 60.3273 14.432 60.3273C14.7345 60.3273 15.0288 60.1711 15.1921 59.8909L17.6769 55.6285C20.6812 58.5353 24.7706 60.3273 29.2712 60.3273C31.2136 60.3273 33.1169 59.9962 34.9282 59.3434C35.3848 59.1789 35.6215 58.6752 35.457 58.2186C35.2925 57.762 34.7889 57.5252 34.3322 57.6897C32.7126 58.2734 31.0098 58.5694 29.2712 58.5694C21.04 58.5694 14.3434 51.8728 14.3434 43.6416C14.1807 35.6029 21.2263 28.5845 29.2712 28.7139C31.9154 28.7139 34.4854 29.4077 36.751 30.7228C36.2878 31.9243 36.0421 33.2091 36.0421 34.5108C36.0421 35.3134 36.1337 36.1151 36.3142 36.893C36.4793 37.6074 36.3135 38.361 35.8596 38.9602C35.7307 39.1303 35.6075 39.3033 35.4873 39.4781C34.115 37.4437 31.7822 36.1574 29.2712 36.1574C25.1443 36.1574 21.7868 39.5149 21.7868 43.6418C21.7868 47.7687 25.1443 51.1262 29.2712 51.1262C30.7588 51.1262 32.2105 50.6737 33.4336 49.8566C34.7244 55.9328 40.1369 60.4909 46.5712 60.4907C54.1754 60.5001 60.0377 54.2031 59.9999 47.0611C59.9998 44.1188 59.0653 41.325 57.2971 38.9818ZM46.57 36.8751C46.1621 36.8751 45.7657 36.9243 45.385 37.0145V34.7794H47.7556V37.0147C47.3746 36.9243 46.9781 36.8751 46.57 36.8751ZM45.3849 30.3137H47.7555V33.0218H45.3849V30.3137ZM45.3849 28.556V25.8491H47.7555V28.556H45.3849ZM47.7555 11.8389V15.1597H45.3849V11.8389H47.7555ZM47.7555 16.9175V19.6256H45.3849V16.9175H47.7555ZM47.7555 21.3833V24.0914H45.3849V21.3833H47.7555ZM43.7378 2.67653C43.7378 2.45049 43.9216 2.26652 44.1477 2.26652H48.9923C49.2184 2.26652 49.4023 2.45037 49.4023 2.67653V7.76902L48.1173 10.0808H45.0227L43.7378 7.76914V2.67653ZM37.365 29.0493C36.0094 28.2958 34.5606 27.7402 33.0574 27.3912V24.2051H37.365V29.0493ZM24.475 24.2051V27.6507C23.0098 28.0883 21.6113 28.7293 20.3068 29.5649V24.2052H24.475V24.2051ZM26.2327 27.2299V24.2052H31.2996V27.0816C30.6298 27.0002 29.9529 26.9566 29.2712 26.9566C28.2394 26.9565 27.2242 27.0491 26.2327 27.2299ZM29.2712 49.3687C26.1135 49.3687 23.5445 46.7997 23.5445 43.642C23.5445 40.4843 26.1135 37.9153 29.2712 37.9153C31.4953 37.9153 33.5366 39.2343 34.4667 41.2332C33.5123 43.2106 33.0282 45.5154 33.1637 47.84C32.103 48.8279 30.7352 49.3687 29.2712 49.3687ZM54.8601 55.2779C52.7294 57.4431 49.6753 58.7504 46.5713 58.7332C40.1906 58.7327 34.9646 53.5751 34.8994 47.1845C34.8707 44.6303 35.6837 42.1121 37.2605 40.022C38.0302 39.0058 38.3094 37.7211 38.0266 36.4968C37.8761 35.8482 37.7997 35.1802 37.7997 34.5112C37.7997 32.4986 38.4988 30.5325 39.7682 28.9753C40.7847 27.7285 42.1284 26.7841 43.6271 26.2484V37.8052C42.3015 38.7352 41.4324 40.2738 41.4324 42.0126C41.4324 43.9046 42.4678 45.6383 44.1344 46.5371C44.5618 46.7676 45.0947 46.6079 45.3251 46.1806C45.5555 45.7534 45.3959 45.2203 44.9686 44.9899C43.8716 44.3984 43.1902 43.2575 43.1902 42.0126C43.1902 40.1489 44.7064 38.6328 46.57 38.6328C48.4337 38.6328 49.9499 40.1489 49.9499 42.0126C49.9499 43.2739 49.2553 44.4217 48.1371 45.0082C47.7073 45.2337 47.5415 45.765 47.7669 46.1947C47.9241 46.4943 48.2297 46.6655 48.546 46.6655C48.6835 46.6655 48.8231 46.6332 48.9534 46.5649C50.6523 45.6738 51.7075 43.9294 51.7075 42.0126C51.7075 40.2741 50.8386 38.7355 49.5132 37.8054V26.2487C52.8659 27.4402 55.2059 30.5671 55.3342 34.1935C55.3613 34.9505 55.2915 35.7056 55.1263 36.4393C54.8431 37.7065 55.1229 39.0193 55.8941 40.0408C57.4301 42.0763 58.2421 44.504 58.2421 47.0615C58.2421 50.1596 57.0409 53.0776 54.8601 55.2779Z" fill="url(#paint0_linear_1_90)"></path><path d="M9.84249 24.3342C9.35712 24.3342 8.96362 24.7277 8.96362 25.2131V59.3712C8.96362 59.8566 9.35712 60.2501 9.84249 60.2501C10.3279 60.2501 10.7213 59.8566 10.7213 59.3712V25.2131C10.7213 24.7277 10.3279 24.3342 9.84249 24.3342Z" fill="url(#paint1_linear_1_90)"></path><path d="M16.9724 18.5064C17.2129 18.5731 17.4575 18.6062 17.7004 18.6062C18.1618 18.6062 18.618 18.487 19.0306 18.2536C19.6605 17.8971 20.1139 17.3168 20.3076 16.6179L20.3108 16.6057C20.5042 15.9084 20.4143 15.1775 20.058 14.5477C19.7016 13.9178 19.1212 13.4645 18.4237 13.2711L3.43795 9.11666C2.74071 8.92354 2.00962 9.01319 1.37988 9.36954C0.75003 9.726 0.296654 10.3063 0.102953 11.0052L0.0996715 11.0173C-0.0936784 11.7147 -0.00379995 12.4456 0.35255 13.0754C0.7089 13.7053 1.2893 14.1586 1.98677 14.352L8.96365 16.2862V21.1131C8.96365 21.5985 9.35715 21.992 9.84252 21.992C10.3279 21.992 10.7214 21.5985 10.7214 21.1131V16.7734L16.9724 18.5064ZM1.79389 11.4855L1.79717 11.4733C1.86502 11.2284 2.02427 11.0245 2.2455 10.8993C2.46663 10.7742 2.72337 10.7426 2.9684 10.8105L17.9542 14.965C18.4598 15.1051 18.7571 15.6306 18.6165 16.1376L18.6132 16.1498C18.5454 16.3947 18.3861 16.5986 18.1649 16.7237C17.9438 16.8488 17.687 16.8807 17.442 16.8126L2.4562 12.6581C1.95056 12.5179 1.65327 11.9925 1.79389 11.4855Z" fill="url(#paint2_linear_1_90)"></path><path d="M50.358 51.1812H42.6604C42.175 51.1812 41.7815 51.5746 41.7815 52.06C41.7815 52.5454 42.175 52.9389 42.6604 52.9389H50.358C50.8434 52.9389 51.2369 52.5454 51.2369 52.06C51.2369 51.5746 50.8434 51.1812 50.358 51.1812Z" fill="url(#paint3_linear_1_90)"></path></g><defs><linearGradient id="paint0_linear_1_90" x1="36.2929" y1="0.508789" x2="36.2929" y2="60.4908" gradientUnits="userSpaceOnUse"><stop stop-color="#00F0FF"></stop><stop offset="1" stop-color="#00AFFF"></stop></linearGradient><linearGradient id="paint1_linear_1_90" x1="9.84249" y1="24.3342" x2="9.84249" y2="60.2501" gradientUnits="userSpaceOnUse"><stop stop-color="#00F0FF"></stop><stop offset="1" stop-color="#00AFFF"></stop></linearGradient><linearGradient id="paint2_linear_1_90" x1="10.2053" y1="9.01709" x2="10.2053" y2="21.992" gradientUnits="userSpaceOnUse"><stop stop-color="#00F0FF"></stop><stop offset="1" stop-color="#00AFFF"></stop></linearGradient><linearGradient id="paint3_linear_1_90" x1="46.5092" y1="51.1812" x2="46.5092" y2="52.9389" gradientUnits="userSpaceOnUse"><stop stop-color="#00F0FF"></stop><stop offset="1" stop-color="#00AFFF"></stop></linearGradient><clipPath id="clip0_1_90"><rect width="60" height="60" fill="white" transform="translate(0 0.5)"></rect></clipPath></defs></svg>