<svg xmlns="http://www.w3.org/2000/svg" width="41" height="41" viewBox="0 0 41 41" fill="none"><circle cx="20.1701" cy="20.1701" r="19.701" stroke="url(#paint0_linear_19_411)" stroke-width="0.938144"></circle><path d="M24.0796 10.3203C27.3552 10.3203 30.0199 12.9851 30.02 16.2607V24.3213C30.0199 27.5969 27.3552 30.2617 24.0796 30.2617H16.019C12.7436 30.2615 10.0788 27.5968 10.0786 24.3213V16.2607C10.0787 12.9852 12.7435 10.3205 16.019 10.3203H24.0796ZM16.02 12.3262C13.8471 12.3262 12.0856 14.0878 12.0854 16.2607V24.3213C12.0855 26.4942 13.8471 28.2559 16.02 28.2559H24.0796C26.2525 28.2559 28.0141 26.4942 28.0142 24.3213V16.2607C28.014 14.0878 26.2525 12.3262 24.0796 12.3262H16.02ZM20.0483 15.1338C22.8922 15.1338 25.2065 17.4471 25.2065 20.291C25.2065 23.1349 22.8922 25.4482 20.0483 25.4482C17.2046 25.448 14.8911 23.1347 14.8911 20.291C14.8911 17.4473 17.2046 15.134 20.0483 15.1338ZM20.0513 17.1396C18.3108 17.1396 16.8989 18.5505 16.8989 20.291C16.8989 22.0315 18.3107 23.4424 20.0513 23.4424C21.7916 23.4422 23.2026 22.0314 23.2026 20.291C23.2026 18.5506 21.7916 17.1399 20.0513 17.1396ZM25.2163 13.9365C25.8989 13.9365 26.4526 14.4903 26.4526 15.1729C26.4524 15.8552 25.8987 16.4082 25.2163 16.4082C24.5339 16.4082 23.9812 15.8552 23.981 15.1729C23.981 14.4903 24.5338 13.9365 25.2163 13.9365Z" fill="url(#paint1_linear_19_411)"></path><defs><linearGradient id="paint0_linear_19_411" x1="20.1701" y1="0" x2="20.1701" y2="40.3402" gradientUnits="userSpaceOnUse"><stop stop-color="#00F0FF"></stop><stop offset="1" stop-color="#00AFFF"></stop></linearGradient><linearGradient id="paint1_linear_19_411" x1="20.0493" y1="10.3203" x2="20.0493" y2="30.2617" gradientUnits="userSpaceOnUse"><stop stop-color="#00F0FF"></stop><stop offset="1" stop-color="#00AFFF"></stop></linearGradient></defs></svg>