<svg xmlns="http://www.w3.org/2000/svg" width="42" height="41" viewBox="0 0 42 41" fill="none"><circle cx="20.9948" cy="20.1701" r="19.701" stroke="url(#paint0_linear_19_424)" stroke-width="0.938144"></circle><path d="M16.9158 27.7363H13.3035V16.1025H16.9158V27.7363ZM26.1013 15.8213C29.7536 15.8213 30.4323 18.228 30.4324 21.3613V27.7363H26.8269V22.0811C26.8269 20.7296 26.8065 18.9954 24.9539 18.9951C23.074 18.9951 22.7917 20.4675 22.7917 21.9805V27.7363H19.1863V16.1035H22.6375V17.6973H22.6843C23.1677 16.7828 24.3424 15.8214 26.1013 15.8213ZM15.115 10.3203C16.2695 10.3205 17.2095 11.2617 17.2097 12.418C17.2097 13.5744 16.2696 14.5164 15.115 14.5166C13.9535 14.5166 13.0203 13.5745 13.0203 12.418C13.0205 11.2616 13.9536 10.3203 15.115 10.3203Z" fill="url(#paint1_linear_19_424)"></path><defs><linearGradient id="paint0_linear_19_424" x1="20.9948" y1="0" x2="20.9948" y2="40.3402" gradientUnits="userSpaceOnUse"><stop stop-color="#00F0FF"></stop><stop offset="1" stop-color="#00AFFF"></stop></linearGradient><linearGradient id="paint1_linear_19_424" x1="21.7263" y1="10.3203" x2="21.7263" y2="27.7363" gradientUnits="userSpaceOnUse"><stop stop-color="#00F0FF"></stop><stop offset="1" stop-color="#00AFFF"></stop></linearGradient></defs></svg>