<svg xmlns="http://www.w3.org/2000/svg" width="98" height="98" viewBox="0 0 98 98" fill="none"><circle opacity="0.2" cx="49" cy="49" r="49" fill="white"></circle><rect x="13" y="13" width="72" height="72" rx="36" fill="url(#paint0_linear_20106_110)"></rect><path d="M42.2803 40.8133C42.2803 39.6287 42.2803 39.0365 42.5272 38.71C42.7424 38.4256 43.0713 38.2496 43.4273 38.2283C43.8359 38.2039 44.3287 38.5324 45.3143 39.1895L58.1401 47.74C58.9545 48.2829 59.3616 48.5544 59.5035 48.8966C59.6276 49.1957 59.6276 49.5319 59.5035 49.831C59.3616 50.1732 58.9545 50.4446 58.1401 50.9875L45.3143 59.5381C44.3287 60.1951 43.8359 60.5237 43.4273 60.4993C43.0713 60.478 42.7424 60.302 42.5272 60.0176C42.2803 59.6911 42.2803 59.0988 42.2803 57.9143V40.8133Z" fill="#1E1E1E"></path><defs><linearGradient id="paint0_linear_20106_110" x1="49" y1="13" x2="49" y2="85" gradientUnits="userSpaceOnUse"><stop stop-color="#FECB00"></stop><stop offset="1" stop-color="#EF7F01"></stop></linearGradient></defs></svg>