<svg xmlns="http://www.w3.org/2000/svg" width="61" height="61" viewBox="0 0 61 61" fill="none"><g clip-path="url(#clip0_1_98)"><path d="M10.7738 35.8425H13.4156V58.7385H6.07715V60.5H15.177V34.0811H10.7738V35.8425Z" fill="url(#paint0_linear_1_98)"></path><path d="M2.26147 35.8425H9.01257V34.0811H0.5V60.5H4.31592V58.7385H2.26147V35.8425Z" fill="url(#paint1_linear_1_98)"></path><path d="M41.3607 58.7386H19.6389V53.7485H17.8774V60.5H43.1222V42.0068H41.3607V58.7386Z" fill="url(#paint2_linear_1_98)"></path><path d="M22.2808 34.5508H24.0418V36.3123H22.2808V34.5508Z" fill="url(#paint3_linear_1_98)"></path><path d="M4.02246 42.2417C4.02246 44.346 5.7345 46.0576 7.83838 46.0576C9.94272 46.0576 11.6548 44.346 11.6548 42.2417C11.6548 40.1378 9.94272 38.4258 7.83838 38.4258C5.7345 38.4258 4.02246 40.1378 4.02246 42.2417ZM9.89328 42.2417C9.89328 43.3747 8.97134 44.2966 7.83838 44.2966C6.70541 44.2966 5.78394 43.3747 5.78394 42.2417C5.78394 41.1087 6.70541 40.1868 7.83838 40.1868C8.97134 40.1868 9.89328 41.1087 9.89328 42.2417Z" fill="url(#paint4_linear_1_98)"></path><path d="M11.6548 52.3394C11.6548 50.2355 9.94272 48.5234 7.83838 48.5234C5.7345 48.5234 4.02246 50.2355 4.02246 52.3394C4.02246 54.4437 5.7345 56.1553 7.83838 56.1553C9.94272 56.1553 11.6548 54.4437 11.6548 52.3394ZM5.78394 52.3394C5.78394 51.2064 6.70541 50.2845 7.83838 50.2845C8.97134 50.2845 9.89328 51.2064 9.89328 52.3394C9.89328 53.4723 8.97134 54.3943 7.83838 54.3943C6.70541 54.3943 5.78394 53.4723 5.78394 52.3394Z" fill="url(#paint5_linear_1_98)"></path><path d="M56.9775 52.3394C56.9775 50.2355 55.2655 48.5234 53.1616 48.5234C51.0573 48.5234 49.3452 50.2355 49.3452 52.3394C49.3452 54.4437 51.0573 56.1553 53.1616 56.1553C55.2655 56.1553 56.9775 54.4437 56.9775 52.3394ZM51.1067 52.3394C51.1067 51.2064 52.0286 50.2845 53.1616 50.2845C54.2946 50.2845 55.216 51.2064 55.216 52.3394C55.216 53.4723 54.2946 54.3943 53.1616 54.3943C52.0286 54.3943 51.1067 53.4723 51.1067 52.3394Z" fill="url(#paint6_linear_1_98)"></path><path d="M47.5842 35.8425H54.3358V34.0811H45.8228V60.5H49.6391V58.7385H47.5842V35.8425Z" fill="url(#paint7_linear_1_98)"></path><path d="M56.0966 34.0811V35.8425H58.7383V58.7385H51.3999V60.5H60.4998V34.0811H56.0966Z" fill="url(#paint8_linear_1_98)"></path><path d="M49.3452 42.8291C49.3452 44.933 51.0573 46.645 53.1616 46.645C55.2655 46.645 56.9775 44.933 56.9775 42.8291C56.9775 40.7247 55.2655 39.0127 53.1616 39.0127C51.0573 39.0127 49.3452 40.7247 49.3452 42.8291ZM55.216 42.8291C55.216 43.962 54.2946 44.8835 53.1616 44.8835C52.0286 44.8835 51.1067 43.962 51.1067 42.8291C51.1067 41.6961 52.0286 40.7742 53.1616 40.7742C54.2946 40.7742 55.216 41.6961 55.216 42.8291Z" fill="url(#paint9_linear_1_98)"></path><path d="M22.3396 22.5871V25.0988H24.1011V21.9742L17.605 13.7738L19.989 11.8228L22.0709 14.3524C22.6862 15.1004 23.5948 15.5293 24.5639 15.5293H27.7609C28.5478 16.0484 29.489 16.3514 30.5002 16.3514C31.5114 16.3514 32.4526 16.0484 33.2394 15.5293H36.4365C37.4056 15.5293 38.3142 15.1004 38.9295 14.3524L41.0114 11.8232L43.3954 13.7738L36.8993 21.9742V25.0988H38.6607V22.5871L52.0586 5.6741C52.5127 5.10052 52.7525 4.41891 52.7525 3.70251C52.7525 1.93692 51.3188 0.5 49.5564 0.5C48.5988 0.5 47.7002 0.923889 47.0914 1.66364L43.5034 6.02338L44.8634 7.14261L48.4514 2.78287C48.7242 2.45145 49.1271 2.26147 49.5564 2.26147C50.4546 2.26147 50.9915 2.99435 50.9915 3.70297C50.9915 4.01791 50.883 4.32141 50.678 4.58051L44.4894 12.3927L42.1306 10.4632L43.7442 8.50217L42.3842 7.38293L37.5699 13.2332C37.2897 13.5733 36.8768 13.7683 36.4365 13.7683H34.8695C35.2646 13.0537 35.4903 12.2334 35.4903 11.3609V7.83841C35.4903 5.08679 33.2518 2.84833 30.5002 2.84833C27.7486 2.84833 25.5101 5.08679 25.5101 7.83841V11.3609C25.5101 12.2334 25.7358 13.0537 26.1308 13.7683H24.5639C24.1235 13.7683 23.7102 13.5733 23.4305 13.2332L13.9085 1.66364C13.3002 0.923889 12.4016 0.5 11.4439 0.5C10.2094 0.5 9.10843 1.19077 8.57056 2.30222C8.03269 3.41412 8.17505 4.70593 8.94181 5.6741L22.3396 22.5871ZM30.5002 4.6098C32.2804 4.6098 33.7293 6.05817 33.7293 7.83841V8.43259L31.9476 6.95813H27.3943C27.7788 5.60452 29.0253 4.6098 30.5002 4.6098ZM27.2711 8.71915H31.3132L33.7293 10.7187V11.3609C33.7293 13.1416 32.2804 14.59 30.5002 14.59C28.7199 14.59 27.2711 13.1416 27.2711 11.3609V8.71915ZM10.1563 3.06897C10.4007 2.56314 10.8823 2.26147 11.4439 2.26147C11.8733 2.26147 12.2762 2.45145 12.549 2.78287L18.8698 10.4632L16.5109 12.3927L10.3224 4.58051C9.97361 4.14014 9.91135 3.5748 10.1563 3.06897Z" fill="url(#paint10_linear_1_98)"></path><path d="M41.3607 27.0361H27.8581V30.5586H26.0966V27.0361H19.6389V30.5586H17.8774V51.9875H19.6389V32.3201H41.3607V34.5508H25.8032V36.3123H41.3607V40.2458H43.1222V30.5586H41.3607V27.0361ZM24.3356 30.5586H21.3999V28.7976H24.3356V30.5586ZM39.5997 30.5586H29.6191V28.7976H39.5997V30.5586Z" fill="url(#paint11_linear_1_98)"></path><path d="M51.1064 17.0559H52.8675V18.8169H51.1064V17.0559Z" fill="url(#paint12_linear_1_98)"></path><path d="M51.1064 22.9268H52.8675V24.6878H51.1064V22.9268Z" fill="url(#paint13_linear_1_98)"></path><path d="M48.1709 19.9912H49.9324V21.7527H48.1709V19.9912Z" fill="url(#paint14_linear_1_98)"></path><path d="M54.042 19.9912H55.8035V21.7527H54.042V19.9912Z" fill="url(#paint15_linear_1_98)"></path><path d="M8.4631 24.8714C7.80621 25.1301 7.28986 25.629 7.00833 26.2758C6.72726 26.9231 6.71445 27.6409 6.97308 28.2978C7.23172 28.9542 7.73068 29.4706 8.3775 29.7521C8.71533 29.899 9.07285 29.9727 9.43036 29.9727C9.75766 29.9727 10.0854 29.911 10.3994 29.7874C11.7544 29.2536 12.4232 27.7164 11.8895 26.361L11.2097 24.6366L9.34247 19.8955L12.3605 20.091L12.4745 18.3336L6.68652 17.9587L9.28204 24.5487L8.4631 24.8714ZM9.92795 26.187L10.2507 27.0064C10.4287 27.4583 10.2058 27.9709 9.754 28.1486C9.53519 28.2351 9.29578 28.231 9.08017 28.1371C8.86456 28.0433 8.69794 27.8707 8.61188 27.6523C8.52582 27.4331 8.52994 27.1941 8.62378 26.9781C8.71762 26.7625 8.88974 26.5963 9.10855 26.5102L9.92795 26.187Z" fill="url(#paint16_linear_1_98)"></path><path d="M34.9031 24.1008H33.1417V22.3394H34.9031V24.1008ZM31.3806 24.1008H29.6192V22.3394H31.3806V24.1008ZM27.8582 24.1008H26.0967V22.3394H27.8582V24.1008Z" fill="url(#paint17_linear_1_98)"></path><path d="M39.5999 54.3357H37.8384V52.5742H39.5999V54.3357ZM39.5999 50.8132H37.8384V49.0518H39.5999V50.8132ZM39.5999 47.2907H37.8384V41.4199H39.5999V47.2907Z" fill="url(#paint18_linear_1_98)"></path></g><defs><linearGradient id="paint0_linear_1_98" x1="10.6271" y1="34.0811" x2="10.6271" y2="60.5" gradientUnits="userSpaceOnUse"><stop stop-color="#00F0FF"></stop><stop offset="1" stop-color="#00AFFF"></stop></linearGradient><linearGradient id="paint1_linear_1_98" x1="4.75629" y1="34.0811" x2="4.75629" y2="60.5" gradientUnits="userSpaceOnUse"><stop stop-color="#00F0FF"></stop><stop offset="1" stop-color="#00AFFF"></stop></linearGradient><linearGradient id="paint2_linear_1_98" x1="30.4998" y1="42.0068" x2="30.4998" y2="60.5" gradientUnits="userSpaceOnUse"><stop stop-color="#00F0FF"></stop><stop offset="1" stop-color="#00AFFF"></stop></linearGradient><linearGradient id="paint3_linear_1_98" x1="23.1613" y1="34.5508" x2="23.1613" y2="36.3123" gradientUnits="userSpaceOnUse"><stop stop-color="#00F0FF"></stop><stop offset="1" stop-color="#00AFFF"></stop></linearGradient><linearGradient id="paint4_linear_1_98" x1="7.83861" y1="38.4258" x2="7.83861" y2="46.0576" gradientUnits="userSpaceOnUse"><stop stop-color="#00F0FF"></stop><stop offset="1" stop-color="#00AFFF"></stop></linearGradient><linearGradient id="paint5_linear_1_98" x1="7.83861" y1="48.5234" x2="7.83861" y2="56.1553" gradientUnits="userSpaceOnUse"><stop stop-color="#00F0FF"></stop><stop offset="1" stop-color="#00AFFF"></stop></linearGradient><linearGradient id="paint6_linear_1_98" x1="53.1614" y1="48.5234" x2="53.1614" y2="56.1553" gradientUnits="userSpaceOnUse"><stop stop-color="#00F0FF"></stop><stop offset="1" stop-color="#00AFFF"></stop></linearGradient><linearGradient id="paint7_linear_1_98" x1="50.0793" y1="34.0811" x2="50.0793" y2="60.5" gradientUnits="userSpaceOnUse"><stop stop-color="#00F0FF"></stop><stop offset="1" stop-color="#00AFFF"></stop></linearGradient><linearGradient id="paint8_linear_1_98" x1="55.9498" y1="34.0811" x2="55.9498" y2="60.5" gradientUnits="userSpaceOnUse"><stop stop-color="#00F0FF"></stop><stop offset="1" stop-color="#00AFFF"></stop></linearGradient><linearGradient id="paint9_linear_1_98" x1="53.1614" y1="39.0127" x2="53.1614" y2="46.645" gradientUnits="userSpaceOnUse"><stop stop-color="#00F0FF"></stop><stop offset="1" stop-color="#00AFFF"></stop></linearGradient><linearGradient id="paint10_linear_1_98" x1="30.5003" y1="0.5" x2="30.5003" y2="25.0988" gradientUnits="userSpaceOnUse"><stop stop-color="#00F0FF"></stop><stop offset="1" stop-color="#00AFFF"></stop></linearGradient><linearGradient id="paint11_linear_1_98" x1="30.4998" y1="27.0361" x2="30.4998" y2="51.9875" gradientUnits="userSpaceOnUse"><stop stop-color="#00F0FF"></stop><stop offset="1" stop-color="#00AFFF"></stop></linearGradient><linearGradient id="paint12_linear_1_98" x1="51.987" y1="17.0559" x2="51.987" y2="18.8169" gradientUnits="userSpaceOnUse"><stop stop-color="#00F0FF"></stop><stop offset="1" stop-color="#00AFFF"></stop></linearGradient><linearGradient id="paint13_linear_1_98" x1="51.987" y1="22.9268" x2="51.987" y2="24.6878" gradientUnits="userSpaceOnUse"><stop stop-color="#00F0FF"></stop><stop offset="1" stop-color="#00AFFF"></stop></linearGradient><linearGradient id="paint14_linear_1_98" x1="49.0516" y1="19.9912" x2="49.0516" y2="21.7527" gradientUnits="userSpaceOnUse"><stop stop-color="#00F0FF"></stop><stop offset="1" stop-color="#00AFFF"></stop></linearGradient><linearGradient id="paint15_linear_1_98" x1="54.9227" y1="19.9912" x2="54.9227" y2="21.7527" gradientUnits="userSpaceOnUse"><stop stop-color="#00F0FF"></stop><stop offset="1" stop-color="#00AFFF"></stop></linearGradient><linearGradient id="paint16_linear_1_98" x1="9.58051" y1="17.9587" x2="9.58051" y2="29.9727" gradientUnits="userSpaceOnUse"><stop stop-color="#00F0FF"></stop><stop offset="1" stop-color="#00AFFF"></stop></linearGradient><linearGradient id="paint17_linear_1_98" x1="30.4999" y1="22.3394" x2="30.4999" y2="24.1008" gradientUnits="userSpaceOnUse"><stop stop-color="#00F0FF"></stop><stop offset="1" stop-color="#00AFFF"></stop></linearGradient><linearGradient id="paint18_linear_1_98" x1="38.7191" y1="41.4199" x2="38.7191" y2="54.3357" gradientUnits="userSpaceOnUse"><stop stop-color="#00F0FF"></stop><stop offset="1" stop-color="#00AFFF"></stop></linearGradient><clipPath id="clip0_1_98"><rect width="60" height="60" fill="white" transform="translate(0.5 0.5)"></rect></clipPath></defs></svg>