<svg xmlns="http://www.w3.org/2000/svg" width="41" height="41" viewBox="0 0 41 41" fill="none"><circle cx="20.5825" cy="20.1701" r="19.701" stroke="url(#paint0_linear_19_419)" stroke-width="0.938144"></circle><path d="M20.6543 12.1963C20.6883 12.1966 24.8676 12.2324 27.6465 12.4434C28.0254 12.4787 28.8867 12.4794 29.6445 13.3623C30.2301 14.0333 30.4375 15.5518 30.4375 15.5518C30.4397 15.5714 30.6436 17.363 30.6436 19.1543V20.8135C30.6436 22.5714 30.4393 24.3647 30.4375 24.3809C30.4375 24.3809 30.2301 25.8993 29.6445 26.5703C28.8867 27.4179 28.0254 27.4539 27.6465 27.4893C24.8677 27.7354 20.6884 27.7363 20.6543 27.7363C20.6543 27.7363 15.4529 27.7009 13.8682 27.5244C13.4203 27.4184 12.4209 27.4532 11.6631 26.5703C11.0777 25.8991 10.8711 24.3809 10.8711 24.3809C10.8693 24.3655 10.6641 22.6068 10.6641 20.8135V19.1543C10.6641 17.3614 10.8692 15.5683 10.8711 15.5518C10.8711 15.5518 11.0433 14.0335 11.6631 13.3623C12.4208 12.5148 13.2822 12.4787 13.6611 12.4434C16.4513 12.2315 20.6543 12.1963 20.6543 12.1963ZM18.2422 24.0635L24.7871 20.3193L18.2422 16.3994V24.0635Z" fill="url(#paint1_linear_19_419)"></path><defs><linearGradient id="paint0_linear_19_419" x1="20.5825" y1="0" x2="20.5825" y2="40.3402" gradientUnits="userSpaceOnUse"><stop stop-color="#00F0FF"></stop><stop offset="1" stop-color="#00AFFF"></stop></linearGradient><linearGradient id="paint1_linear_19_419" x1="20.6538" y1="12.1963" x2="20.6538" y2="27.7363" gradientUnits="userSpaceOnUse"><stop stop-color="#00F0FF"></stop><stop offset="1" stop-color="#00AFFF"></stop></linearGradient></defs></svg>